<svg width="490px"
    height="526px"
    xmlns="http://www.w3.org/2000/svg"
    viewBox="0 0 490 526">
    <g transform="translate(0,526) scale(0.1,-0.1)" fill="#191919" stroke="none">
        <path d="M1448 4772 c-288 -246 -597 -510 -687 -587 -91 -77 -188 -160 -216
        -185 -28 -25 -155 -134 -283 -243 l-232 -198 2 -747 3 -747 321 -275 c281
        -241 1146 -981 1852 -1585 129 -110 241 -200 248 -200 8 0 83 59 166 131 236
        202 1377 1177 1723 1473 171 145 353 302 406 347 l96 83 13 643 c7 354 14 697
        14 763 l1 119 -181 156 c-99 85 -396 339 -660 565 -263 225 -617 528 -786 672
        -169 145 -309 263 -312 263 -3 0 -6 -391 -6 -869 l0 -870 385 -328 c211 -180
        383 -333 382 -340 -2 -9 -906 -789 -1193 -1030 l-49 -41 -107 91 c-58 51 -338
        290 -622 532 -283 242 -515 443 -516 447 0 4 172 155 383 335 210 180 385 332
        389 338 12 15 10 1735 -1 1735 -6 0 -245 -201 -533 -448z m242 -858 l-5 -301
        -675 -578 -675 -578 -3 484 -2 483 22 22 c13 13 318 275 678 583 l655 560 5
        -187 c3 -103 3 -322 0 -488z m1913 354 c201 -172 503 -430 671 -573 l306 -260
        -6 -385 c-4 -212 -9 -427 -13 -479 l-6 -94 -105 90 c-571 489 -1099 939 -1158
        988 l-72 60 0 483 c0 269 4 482 9 482 5 0 173 -141 374 -312z m-2473 -1778
        c657 -564 1321 -1130 1325 -1130 6 0 82 64 1000 850 259 221 476 405 483 407
        15 6 52 -21 169 -128 90 -83 250 -226 348 -313 28 -24 48 -46 45 -48 -3 -3
        -320 -274 -705 -604 -385 -329 -828 -708 -985 -842 -157 -134 -301 -257 -321
        -272 l-35 -29 -225 192 c-250 214 -1200 1027 -1239 1060 -14 12 -150 129 -303
        260 -152 131 -277 239 -277 242 0 2 42 38 92 79 51 42 127 106 168 143 236
        209 302 263 315 255 5 -3 71 -58 145 -122z"/>
    </g>
</svg>